<?xml version="1.0" encoding="utf-8"?><svg xml:space="preserve" viewBox="0 0 100 100" y="0px" x="0px" xmlns:xlink="http://www.w3.org/1999/xlink" xmlns="http://www.w3.org/2000/svg" id="圖層_1" version="1.1" width="200px" height="200px" style="width:100%;height:100%;background-size:initial;background-repeat-y:initial;background-repeat-x:initial;background-position-y:initial;background-position-x:initial;background-origin:initial;background-color:initial;background-clip:initial;background-attachment:initial;animation-play-state:paused" ><g class="ldl-scale" style="transform-origin:50% 50%;transform:rotate(0deg) scale(0.8, 0.8);animation-play-state:paused" ><ellipse ry="34.83" rx="41.02" cy="39.83" cx="50" stroke-miterlimit="10" stroke-linejoin="round" stroke-linecap="round" stroke-width="3.5" stroke="#333435" fill="#92BFA8" style="stroke:rgb(51, 52, 53);fill:rgb(146, 191, 168);animation-play-state:paused" ></ellipse>
<path d="M58.07,84.16l-1.77-26.36l12.1-16.13l-4.94-4.08L51.78,50.46h-1.77L35.09,33.94l-5.49,4.4l14.67,20.74l-1.69,25.07 c-0.19,2.76-1.31,5.38-3.19,7.41L36.23,95h28.19l-3.17-3.43C59.38,89.54,58.25,86.92,58.07,84.16z" stroke-miterlimit="10" stroke-linejoin="round" stroke-linecap="round" stroke-width="3.5" stroke="#333435" fill="#C69C6D" style="stroke:rgb(51, 52, 53);fill:rgb(198, 156, 109);animation-play-state:paused" ></path>
<g style="animation-play-state:paused" ><path d="M52.23,16.65c-0.71-0.03-1.44-0.05-2.17-0.05c-0.02,0-0.04,0-0.06,0c-18.42,0-30.87,9.89-30.87,26.21 c0,1.8,0.16,3.51,0.44,5.15c2.62,0.81,5.43,1.26,8.35,1.26c9.04,0,17.01-4.2,21.69-10.58c4.28,7.84,13.13,13.22,23.36,13.22 c2.32,0,4.56-0.28,6.7-0.8c0.77-2.52,1.18-5.27,1.18-8.24C80.87,27.15,69.41,17.42,52.23,16.65z" fill="#92BFA8" style="fill:rgb(146, 191, 168);animation-play-state:paused" ></path>
<path d="M31.2,49.02c7.67-0.88,14.31-4.8,18.42-10.4c3.63,6.65,10.56,11.54,18.84,12.86" stroke-miterlimit="10" stroke-linejoin="round" stroke-linecap="round" stroke-width="3.5" stroke="#333435" fill="none" style="stroke:rgb(51, 52, 53);animation-play-state:paused" ></path></g>
<path d="M23.22,23.91c0.98-0.4,2.09,0.33,2.11,1.39c0.01,0.64-0.05,1.22-0.16,1.77c-0.22,1.05-0.61,1.98-1.16,2.82 c-0.54,0.84-1.24,1.57-2.12,2.19c-0.47,0.32-0.98,0.62-1.58,0.85c-0.98,0.39-2.08-0.33-2.11-1.39c-0.02-0.64,0.05-1.23,0.16-1.79 c0.22-1.05,0.61-1.98,1.16-2.82c0.55-0.83,1.25-1.57,2.13-2.18C22.12,24.44,22.63,24.15,23.22,23.91z" fill="#689991" style="fill:rgb(104, 153, 145);animation-play-state:paused" ></path>
<path d="M71.83,19.74c-0.15-1.04,0.83-1.95,1.86-1.72c0.62,0.14,1.17,0.34,1.68,0.58c0.97,0.46,1.78,1.07,2.46,1.8 c0.68,0.73,1.22,1.59,1.61,2.59c0.2,0.54,0.36,1.1,0.45,1.74c0.15,1.04-0.83,1.94-1.85,1.72c-0.63-0.14-1.18-0.34-1.7-0.58 c-0.97-0.46-1.78-1.07-2.45-1.81c-0.67-0.73-1.22-1.59-1.6-2.59C72.08,20.93,71.92,20.37,71.83,19.74z" fill="#689991" style="fill:rgb(104, 153, 145);animation-play-state:paused" ></path>
<path d="M28.74,51.74c0.86-0.61,2.11-0.15,2.37,0.87c0.16,0.62,0.23,1.2,0.25,1.76c0.03,1.07-0.14,2.07-0.48,3.01 c-0.34,0.94-0.86,1.81-1.57,2.61c-0.39,0.42-0.82,0.82-1.34,1.19c-0.86,0.6-2.1,0.15-2.37-0.87c-0.16-0.62-0.23-1.21-0.25-1.78 c-0.03-1.07,0.14-2.07,0.49-3.01c0.35-0.94,0.86-1.81,1.58-2.61C27.79,52.51,28.22,52.11,28.74,51.74z" fill="#689991" style="fill:rgb(104, 153, 145);animation-play-state:paused" ></path>
<path d="M39.28,32.76c1.01,0.31,1.41,1.57,0.77,2.41c-0.39,0.5-0.81,0.91-1.24,1.28c-0.83,0.68-1.73,1.16-2.67,1.46 c-0.95,0.31-1.96,0.43-3.02,0.36c-0.57-0.05-1.15-0.14-1.76-0.33c-1.01-0.31-1.41-1.57-0.77-2.41c0.39-0.51,0.81-0.92,1.25-1.29 c0.83-0.68,1.73-1.16,2.68-1.45c0.95-0.3,1.96-0.43,3.03-0.35C38.09,32.49,38.67,32.58,39.28,32.76z" fill="#689991" style="fill:rgb(104, 153, 145);animation-play-state:paused" ></path>
<path d="M54.09,14.45c0.15-1.04,1.34-1.63,2.27-1.12c0.56,0.31,1.02,0.66,1.45,1.03c0.8,0.72,1.4,1.53,1.85,2.42 c0.45,0.89,0.72,1.87,0.81,2.94c0.04,0.57,0.03,1.16-0.06,1.79c-0.16,1.04-1.34,1.63-2.26,1.12c-0.56-0.31-1.03-0.66-1.46-1.04 c-0.8-0.72-1.4-1.53-1.84-2.43c-0.44-0.9-0.72-1.87-0.81-2.94C54,15.67,54,15.08,54.09,14.45z" fill="#689991" style="fill:rgb(104, 153, 145);animation-play-state:paused" ></path>
<path d="M67.28,29.43c0.98-0.4,2.09,0.33,2.11,1.39c0.01,0.64-0.05,1.22-0.16,1.77c-0.22,1.05-0.61,1.98-1.16,2.82 c-0.54,0.84-1.24,1.57-2.12,2.19c-0.47,0.32-0.98,0.62-1.58,0.85c-0.98,0.39-2.08-0.33-2.11-1.39c-0.02-0.64,0.05-1.23,0.16-1.79 c0.22-1.05,0.61-1.98,1.16-2.82c0.55-0.83,1.25-1.57,2.13-2.18C66.19,29.97,66.69,29.67,67.28,29.43z" fill="#689991" style="fill:rgb(104, 153, 145);animation-play-state:paused" ></path>
<path d="M70.85,58.05c0.98-0.4,2.09,0.33,2.11,1.39c0.01,0.64-0.05,1.22-0.16,1.77c-0.22,1.05-0.61,1.98-1.16,2.82 c-0.54,0.84-1.24,1.57-2.12,2.19c-0.47,0.32-0.98,0.62-1.58,0.85c-0.98,0.39-2.08-0.33-2.11-1.39c-0.02-0.64,0.05-1.23,0.16-1.79 c0.22-1.05,0.61-1.98,1.16-2.82c0.55-0.83,1.25-1.57,2.13-2.18C69.75,58.58,70.26,58.29,70.85,58.05z" fill="#689991" style="fill:rgb(104, 153, 145);animation-play-state:paused" ></path>
<path d="M35.64,19.12c-0.66-0.82-0.28-2.1,0.72-2.42c0.6-0.2,1.18-0.3,1.74-0.36c1.07-0.09,2.08,0.01,3.03,0.29 c0.96,0.28,1.86,0.74,2.7,1.4c0.44,0.36,0.87,0.76,1.27,1.27c0.66,0.82,0.28,2.09-0.72,2.42c-0.61,0.2-1.19,0.31-1.76,0.37 c-1.07,0.09-2.08-0.01-3.03-0.3c-0.96-0.29-1.86-0.75-2.7-1.41C36.47,20.01,36.04,19.61,35.64,19.12z" fill="#689991" style="fill:rgb(104, 153, 145);animation-play-state:paused" ></path>
<path d="M73.66,42.39c-0.89-0.57-0.93-1.9-0.08-2.53c0.51-0.38,1.03-0.66,1.54-0.89c0.98-0.43,1.98-0.64,2.97-0.67 c1-0.04,2,0.12,3.01,0.48c0.53,0.2,1.07,0.45,1.61,0.8c0.88,0.57,0.92,1.9,0.08,2.52c-0.52,0.38-1.03,0.66-1.55,0.9 c-0.98,0.42-1.98,0.64-2.97,0.67c-1,0.03-2-0.12-3.01-0.49C74.72,42.98,74.19,42.74,73.66,42.39z" fill="#689991" style="fill:rgb(104, 153, 145);animation-play-state:paused" ></path>
<metadata xmlns:d="https://loading.io/stock/" style="animation-play-state:paused" ><d:name style="animation-play-state:paused" >tree</d:name>


<d:tags style="animation-play-state:paused" >tree,leaf,wood,plant,green</d:tags>


<d:license style="animation-play-state:paused" >by</d:license>


<d:slug style="animation-play-state:paused" >aflw0i</d:slug></metadata></g><!-- generated by https://loading.io/ --></svg>